<?xml version="1.0" encoding="utf-8" standalone="no"?>
<!DOCTYPE svg PUBLIC "-//W3C//DTD SVG 1.1//EN"
  "http://www.w3.org/Graphics/SVG/1.1/DTD/svg11.dtd">
<svg xmlns:xlink="http://www.w3.org/1999/xlink" width="444.99125pt" height="344.174719pt" viewBox="0 0 444.99125 344.174719" xmlns="http://www.w3.org/2000/svg" version="1.1">
 <metadata>
  <rdf:RDF xmlns:dc="http://purl.org/dc/elements/1.1/" xmlns:cc="http://creativecommons.org/ns#" xmlns:rdf="http://www.w3.org/1999/02/22-rdf-syntax-ns#">
   <cc:Work>
    <dc:type rdf:resource="http://purl.org/dc/dcmitype/StillImage"/>
    <dc:date>2026-08-31T13:52:15.195307</dc:date>
    <dc:format>image/svg+xml</dc:format>
    <dc:creator>
     <cc:Agent>
      <dc:title>Matplotlib v3.10.9, https://matplotlib.org/</dc:title>
     </cc:Agent>
    </dc:creator>
   </cc:Work>
  </rdf:RDF>
 </metadata>
 <defs>
  <style type="text/css">*{stroke-linejoin: round; stroke-linecap: butt}</style>
 </defs>
 <g id="figure_1">
  <g id="patch_1">
   <path d="M 0 344.174719 
L 444.99125 344.174719 
L 444.99125 0 
L 0 0 
z
" style="fill: #ffffff"/>
  </g>
  <g id="axes_1">
   <g id="patch_2">
    <path d="M 36.03125 324.216906 
L 437.79125 324.216906 
L 437.79125 35.928906 
L 36.03125 35.928906 
z
" style="fill: #ffffff"/>
   </g>
   <g id="matplotlib.axis_1">
    <g id="xtick_1">
     <g id="line2d_1"/>
     <g id="text_1">
      <!-- Public -->
      <g transform="translate(89.373281 334.890344) scale(0.1 -0.1)">
       <defs>
        <path id="Helvetica-50" d="M 547 4591 
L 2613 4591 
Q 3225 4591 3600 4245 
Q 3975 3900 3975 3275 
Q 3975 2738 3640 2339 
Q 3306 1941 2613 1941 
L 1169 1941 
L 1169 0 
L 547 0 
L 547 4591 
z
M 3347 3272 
Q 3347 3778 2972 3959 
Q 2766 4056 2406 4056 
L 1169 4056 
L 1169 2466 
L 2406 2466 
Q 2825 2466 3086 2644 
Q 3347 2822 3347 3272 
z
" transform="scale(0.015625)"/>
        <path id="Helvetica-75" d="M 975 3347 
L 975 1125 
Q 975 869 1056 706 
Q 1206 406 1616 406 
Q 2203 406 2416 931 
Q 2531 1213 2531 1703 
L 2531 3347 
L 3094 3347 
L 3094 0 
L 2563 0 
L 2569 494 
Q 2459 303 2297 172 
Q 1975 -91 1516 -91 
Q 800 -91 541 388 
Q 400 644 400 1072 
L 400 3347 
L 975 3347 
z
M 1747 3428 
L 1747 3428 
z
" transform="scale(0.015625)"/>
        <path id="Helvetica-62" d="M 369 4606 
L 916 4606 
L 916 2941 
Q 1100 3181 1356 3307 
Q 1613 3434 1913 3434 
Q 2538 3434 2927 3004 
Q 3316 2575 3316 1738 
Q 3316 944 2931 419 
Q 2547 -106 1866 -106 
Q 1484 -106 1222 78 
Q 1066 188 888 428 
L 888 0 
L 369 0 
L 369 4606 
z
M 1831 391 
Q 2288 391 2514 753 
Q 2741 1116 2741 1709 
Q 2741 2238 2514 2584 
Q 2288 2931 1847 2931 
Q 1463 2931 1173 2647 
Q 884 2363 884 1709 
Q 884 1238 1003 944 
Q 1225 391 1831 391 
z
" transform="scale(0.015625)"/>
        <path id="Helvetica-6c" d="M 428 4591 
L 991 4591 
L 991 0 
L 428 0 
L 428 4591 
z
" transform="scale(0.015625)"/>
        <path id="Helvetica-69" d="M 413 3331 
L 984 3331 
L 984 0 
L 413 0 
L 413 3331 
z
M 413 4591 
L 984 4591 
L 984 3953 
L 413 3953 
L 413 4591 
z
" transform="scale(0.015625)"/>
        <path id="Helvetica-63" d="M 1703 3444 
Q 2269 3444 2623 3169 
Q 2978 2894 3050 2222 
L 2503 2222 
Q 2453 2531 2275 2736 
Q 2097 2941 1703 2941 
Q 1166 2941 934 2416 
Q 784 2075 784 1575 
Q 784 1072 996 728 
Q 1209 384 1666 384 
Q 2016 384 2220 598 
Q 2425 813 2503 1184 
L 3050 1184 
Q 2956 519 2581 211 
Q 2206 -97 1622 -97 
Q 966 -97 575 383 
Q 184 863 184 1581 
Q 184 2463 612 2953 
Q 1041 3444 1703 3444 
z
M 1616 3428 
L 1616 3428 
z
" transform="scale(0.015625)"/>
       </defs>
       <use xlink:href="#Helvetica-50"/>
       <use xlink:href="#Helvetica-75" transform="translate(66.699219 0)"/>
       <use xlink:href="#Helvetica-62" transform="translate(122.314453 0)"/>
       <use xlink:href="#Helvetica-6c" transform="translate(177.929688 0)"/>
       <use xlink:href="#Helvetica-69" transform="translate(200.146484 0)"/>
       <use xlink:href="#Helvetica-63" transform="translate(222.363281 0)"/>
      </g>
     </g>
    </g>
    <g id="xtick_2">
     <g id="line2d_2"/>
     <g id="text_2">
      <!-- Local -->
      <g transform="translate(224.958906 334.890344) scale(0.1 -0.1)">
       <defs>
        <path id="Helvetica-4c" d="M 488 4591 
L 1109 4591 
L 1109 547 
L 3434 547 
L 3434 0 
L 488 0 
L 488 4591 
z
" transform="scale(0.015625)"/>
        <path id="Helvetica-6f" d="M 1741 363 
Q 2300 363 2508 786 
Q 2716 1209 2716 1728 
Q 2716 2197 2566 2491 
Q 2328 2953 1747 2953 
Q 1231 2953 997 2559 
Q 763 2166 763 1609 
Q 763 1075 997 719 
Q 1231 363 1741 363 
z
M 1763 3444 
Q 2409 3444 2856 3012 
Q 3303 2581 3303 1744 
Q 3303 934 2909 406 
Q 2516 -122 1688 -122 
Q 997 -122 590 345 
Q 184 813 184 1600 
Q 184 2444 612 2944 
Q 1041 3444 1763 3444 
z
M 1744 3428 
L 1744 3428 
z
" transform="scale(0.015625)"/>
        <path id="Helvetica-61" d="M 844 891 
Q 844 647 1022 506 
Q 1200 366 1444 366 
Q 1741 366 2019 503 
Q 2488 731 2488 1250 
L 2488 1703 
Q 2384 1638 2221 1594 
Q 2059 1550 1903 1531 
L 1563 1488 
Q 1256 1447 1103 1359 
Q 844 1213 844 891 
z
M 2206 2028 
Q 2400 2053 2466 2191 
Q 2503 2266 2503 2406 
Q 2503 2694 2298 2823 
Q 2094 2953 1713 2953 
Q 1272 2953 1088 2716 
Q 984 2584 953 2325 
L 428 2325 
Q 444 2944 830 3186 
Q 1216 3428 1725 3428 
Q 2316 3428 2684 3203 
Q 3050 2978 3050 2503 
L 3050 575 
Q 3050 488 3086 434 
Q 3122 381 3238 381 
Q 3275 381 3322 386 
Q 3369 391 3422 400 
L 3422 -16 
Q 3291 -53 3222 -62 
Q 3153 -72 3034 -72 
Q 2744 -72 2613 134 
Q 2544 244 2516 444 
Q 2344 219 2022 53 
Q 1700 -113 1313 -113 
Q 847 -113 551 170 
Q 256 453 256 878 
Q 256 1344 547 1600 
Q 838 1856 1309 1916 
L 2206 2028 
z
M 1741 3428 
L 1741 3428 
z
" transform="scale(0.015625)"/>
       </defs>
       <use xlink:href="#Helvetica-4c"/>
       <use xlink:href="#Helvetica-6f" transform="translate(55.615234 0)"/>
       <use xlink:href="#Helvetica-63" transform="translate(111.230469 0)"/>
       <use xlink:href="#Helvetica-61" transform="translate(161.230469 0)"/>
       <use xlink:href="#Helvetica-6c" transform="translate(216.845703 0)"/>
      </g>
     </g>
    </g>
    <g id="xtick_3">
     <g id="line2d_3"/>
     <g id="text_3">
      <!-- Disabled -->
      <g transform="translate(351.376563 334.890344) scale(0.1 -0.1)">
       <defs>
        <path id="Helvetica-44" d="M 2250 531 
Q 2566 531 2769 597 
Q 3131 719 3363 1066 
Q 3547 1344 3628 1778 
Q 3675 2038 3675 2259 
Q 3675 3113 3336 3584 
Q 2997 4056 2244 4056 
L 1141 4056 
L 1141 531 
L 2250 531 
z
M 516 4591 
L 2375 4591 
Q 3322 4591 3844 3919 
Q 4309 3313 4309 2366 
Q 4309 1634 4034 1044 
Q 3550 0 2369 0 
L 516 0 
L 516 4591 
z
" transform="scale(0.015625)"/>
        <path id="Helvetica-73" d="M 747 1050 
Q 772 769 888 619 
Q 1100 347 1625 347 
Q 1938 347 2175 483 
Q 2413 619 2413 903 
Q 2413 1119 2222 1231 
Q 2100 1300 1741 1391 
L 1294 1503 
Q 866 1609 663 1741 
Q 300 1969 300 2372 
Q 300 2847 642 3140 
Q 984 3434 1563 3434 
Q 2319 3434 2653 2991 
Q 2863 2709 2856 2384 
L 2325 2384 
Q 2309 2575 2191 2731 
Q 1997 2953 1519 2953 
Q 1200 2953 1036 2831 
Q 872 2709 872 2509 
Q 872 2291 1088 2159 
Q 1213 2081 1456 2022 
L 1828 1931 
Q 2434 1784 2641 1647 
Q 2969 1431 2969 969 
Q 2969 522 2630 197 
Q 2291 -128 1597 -128 
Q 850 -128 539 211 
Q 228 550 206 1050 
L 747 1050 
z
M 1578 3428 
L 1578 3428 
z
" transform="scale(0.015625)"/>
        <path id="Helvetica-65" d="M 1806 3422 
Q 2163 3422 2497 3255 
Q 2831 3088 3006 2822 
Q 3175 2569 3231 2231 
Q 3281 2000 3281 1494 
L 828 1494 
Q 844 984 1069 676 
Q 1294 369 1766 369 
Q 2206 369 2469 659 
Q 2619 828 2681 1050 
L 3234 1050 
Q 3213 866 3089 639 
Q 2966 413 2813 269 
Q 2556 19 2178 -69 
Q 1975 -119 1719 -119 
Q 1094 -119 659 336 
Q 225 791 225 1609 
Q 225 2416 662 2919 
Q 1100 3422 1806 3422 
z
M 2703 1941 
Q 2669 2306 2544 2525 
Q 2313 2931 1772 2931 
Q 1384 2931 1121 2651 
Q 859 2372 844 1941 
L 2703 1941 
z
M 1753 3428 
L 1753 3428 
z
" transform="scale(0.015625)"/>
        <path id="Helvetica-64" d="M 769 1634 
Q 769 1097 997 734 
Q 1225 372 1728 372 
Q 2119 372 2370 708 
Q 2622 1044 2622 1672 
Q 2622 2306 2362 2611 
Q 2103 2916 1722 2916 
Q 1297 2916 1033 2591 
Q 769 2266 769 1634 
z
M 1616 3406 
Q 2000 3406 2259 3244 
Q 2409 3150 2600 2916 
L 2600 4606 
L 3141 4606 
L 3141 0 
L 2634 0 
L 2634 466 
Q 2438 156 2169 18 
Q 1900 -119 1553 -119 
Q 994 -119 584 351 
Q 175 822 175 1603 
Q 175 2334 548 2870 
Q 922 3406 1616 3406 
z
" transform="scale(0.015625)"/>
       </defs>
       <use xlink:href="#Helvetica-44"/>
       <use xlink:href="#Helvetica-69" transform="translate(72.216797 0)"/>
       <use xlink:href="#Helvetica-73" transform="translate(94.433594 0)"/>
       <use xlink:href="#Helvetica-61" transform="translate(144.433594 0)"/>
       <use xlink:href="#Helvetica-62" transform="translate(200.048828 0)"/>
       <use xlink:href="#Helvetica-6c" transform="translate(255.664062 0)"/>
       <use xlink:href="#Helvetica-65" transform="translate(277.880859 0)"/>
       <use xlink:href="#Helvetica-64" transform="translate(333.496094 0)"/>
      </g>
     </g>
    </g>
   </g>
   <g id="matplotlib.axis_2">
    <g id="ytick_1">
     <g id="line2d_4">
      <path d="M 36.03125 278.700338 
L 437.79125 278.700338 
" clip-path="url(#p84c5ea51ae)" style="fill: none; stroke: #b0b0b0; stroke-opacity: 0.25; stroke-width: 0.6; stroke-linecap: square"/>
     </g>
     <g id="line2d_5"/>
     <g id="text_4">
      <!-- 4 -->
      <g transform="translate(26.970312 282.287057) scale(0.1 -0.1)">
       <defs>
        <path id="Helvetica-34" d="M 2116 1584 
L 2116 3613 
L 681 1584 
L 2116 1584 
z
M 2125 0 
L 2125 1094 
L 163 1094 
L 163 1644 
L 2213 4488 
L 2688 4488 
L 2688 1584 
L 3347 1584 
L 3347 1094 
L 2688 1094 
L 2688 0 
L 2125 0 
z
" transform="scale(0.015625)"/>
       </defs>
       <use xlink:href="#Helvetica-34"/>
      </g>
     </g>
    </g>
    <g id="ytick_2">
     <g id="line2d_6">
      <path d="M 36.03125 232.999348 
L 437.79125 232.999348 
" clip-path="url(#p84c5ea51ae)" style="fill: none; stroke: #b0b0b0; stroke-opacity: 0.25; stroke-width: 0.6; stroke-linecap: square"/>
     </g>
     <g id="line2d_7"/>
     <g id="text_5">
      <!-- 6 -->
      <g transform="translate(26.970312 236.586067) scale(0.1 -0.1)">
       <defs>
        <path id="Helvetica-36" d="M 1872 4494 
Q 2622 4494 2917 4105 
Q 3213 3716 3213 3303 
L 2656 3303 
Q 2606 3569 2497 3719 
Q 2294 4000 1881 4000 
Q 1409 4000 1131 3564 
Q 853 3128 822 2316 
Q 1016 2600 1309 2741 
Q 1578 2866 1909 2866 
Q 2472 2866 2890 2506 
Q 3309 2147 3309 1434 
Q 3309 825 2912 354 
Q 2516 -116 1781 -116 
Q 1153 -116 697 361 
Q 241 838 241 1966 
Q 241 2800 444 3381 
Q 834 4494 1872 4494 
z
M 1831 384 
Q 2275 384 2495 682 
Q 2716 981 2716 1388 
Q 2716 1731 2519 2042 
Q 2322 2353 1803 2353 
Q 1441 2353 1167 2112 
Q 894 1872 894 1388 
Q 894 963 1142 673 
Q 1391 384 1831 384 
z
" transform="scale(0.015625)"/>
       </defs>
       <use xlink:href="#Helvetica-36"/>
      </g>
     </g>
    </g>
    <g id="ytick_3">
     <g id="line2d_8">
      <path d="M 36.03125 187.298358 
L 437.79125 187.298358 
" clip-path="url(#p84c5ea51ae)" style="fill: none; stroke: #b0b0b0; stroke-opacity: 0.25; stroke-width: 0.6; stroke-linecap: square"/>
     </g>
     <g id="line2d_9"/>
     <g id="text_6">
      <!-- 8 -->
      <g transform="translate(26.970312 190.885077) scale(0.1 -0.1)">
       <defs>
        <path id="Helvetica-38" d="M 1741 2600 
Q 2113 2600 2322 2808 
Q 2531 3016 2531 3303 
Q 2531 3553 2331 3762 
Q 2131 3972 1722 3972 
Q 1316 3972 1134 3762 
Q 953 3553 953 3272 
Q 953 2956 1187 2778 
Q 1422 2600 1741 2600 
z
M 1775 384 
Q 2166 384 2423 595 
Q 2681 806 2681 1225 
Q 2681 1659 2415 1884 
Q 2150 2109 1734 2109 
Q 1331 2109 1076 1879 
Q 822 1650 822 1244 
Q 822 894 1055 639 
Q 1288 384 1775 384 
z
M 975 2384 
Q 741 2484 609 2619 
Q 363 2869 363 3269 
Q 363 3769 725 4128 
Q 1088 4488 1753 4488 
Q 2397 4488 2762 4148 
Q 3128 3809 3128 3356 
Q 3128 2938 2916 2678 
Q 2797 2531 2547 2391 
Q 2825 2263 2984 2097 
Q 3281 1784 3281 1284 
Q 3281 694 2884 283 
Q 2488 -128 1763 -128 
Q 1109 -128 657 226 
Q 206 581 206 1256 
Q 206 1653 400 1942 
Q 594 2231 975 2384 
z
" transform="scale(0.015625)"/>
       </defs>
       <use xlink:href="#Helvetica-38"/>
      </g>
     </g>
    </g>
    <g id="ytick_4">
     <g id="line2d_10">
      <path d="M 36.03125 141.597368 
L 437.79125 141.597368 
" clip-path="url(#p84c5ea51ae)" style="fill: none; stroke: #b0b0b0; stroke-opacity: 0.25; stroke-width: 0.6; stroke-linecap: square"/>
     </g>
     <g id="line2d_11"/>
     <g id="text_7">
      <!-- 10 -->
      <g transform="translate(21.409375 145.184087) scale(0.1 -0.1)">
       <defs>
        <path id="Helvetica-31" d="M 613 3169 
L 613 3600 
Q 1222 3659 1462 3798 
Q 1703 3938 1822 4456 
L 2266 4456 
L 2266 0 
L 1666 0 
L 1666 3169 
L 613 3169 
z
" transform="scale(0.015625)"/>
        <path id="Helvetica-30" d="M 1731 4475 
Q 2600 4475 2988 3759 
Q 3288 3206 3288 2244 
Q 3288 1331 3016 734 
Q 2622 -122 1728 -122 
Q 922 -122 528 578 
Q 200 1163 200 2147 
Q 200 2909 397 3456 
Q 766 4475 1731 4475 
z
M 1725 391 
Q 2163 391 2422 778 
Q 2681 1166 2681 2222 
Q 2681 2984 2493 3476 
Q 2306 3969 1766 3969 
Q 1269 3969 1039 3501 
Q 809 3034 809 2125 
Q 809 1441 956 1025 
Q 1181 391 1725 391 
z
" transform="scale(0.015625)"/>
       </defs>
       <use xlink:href="#Helvetica-31"/>
       <use xlink:href="#Helvetica-30" transform="translate(55.615234 0)"/>
      </g>
     </g>
    </g>
    <g id="ytick_5">
     <g id="line2d_12">
      <path d="M 36.03125 95.896378 
L 437.79125 95.896378 
" clip-path="url(#p84c5ea51ae)" style="fill: none; stroke: #b0b0b0; stroke-opacity: 0.25; stroke-width: 0.6; stroke-linecap: square"/>
     </g>
     <g id="line2d_13"/>
     <g id="text_8">
      <!-- 12 -->
      <g transform="translate(21.409375 99.483097) scale(0.1 -0.1)">
       <defs>
        <path id="Helvetica-32" d="M 200 0 
Q 231 578 439 1006 
Q 647 1434 1250 1784 
L 1850 2131 
Q 2253 2366 2416 2531 
Q 2672 2791 2672 3125 
Q 2672 3516 2437 3745 
Q 2203 3975 1813 3975 
Q 1234 3975 1013 3538 
Q 894 3303 881 2888 
L 309 2888 
Q 319 3472 525 3841 
Q 891 4491 1816 4491 
Q 2584 4491 2939 4075 
Q 3294 3659 3294 3150 
Q 3294 2613 2916 2231 
Q 2697 2009 2131 1694 
L 1703 1456 
Q 1397 1288 1222 1134 
Q 909 863 828 531 
L 3272 531 
L 3272 0 
L 200 0 
z
" transform="scale(0.015625)"/>
       </defs>
       <use xlink:href="#Helvetica-31"/>
       <use xlink:href="#Helvetica-32" transform="translate(55.615234 0)"/>
      </g>
     </g>
    </g>
    <g id="ytick_6">
     <g id="line2d_14">
      <path d="M 36.03125 50.195388 
L 437.79125 50.195388 
" clip-path="url(#p84c5ea51ae)" style="fill: none; stroke: #b0b0b0; stroke-opacity: 0.25; stroke-width: 0.6; stroke-linecap: square"/>
     </g>
     <g id="line2d_15"/>
     <g id="text_9">
      <!-- 14 -->
      <g transform="translate(21.409375 53.782107) scale(0.1 -0.1)">
       <use xlink:href="#Helvetica-31"/>
       <use xlink:href="#Helvetica-34" transform="translate(55.615234 0)"/>
      </g>
     </g>
    </g>
    <g id="text_10">
     <!-- End-to-end seconds per row -->
     <g transform="translate(15.116562 249.1615) rotate(-90) scale(0.11 -0.11)">
      <defs>
       <path id="Helvetica-45" d="M 547 4591 
L 3894 4591 
L 3894 4028 
L 1153 4028 
L 1153 2634 
L 3688 2634 
L 3688 2103 
L 1153 2103 
L 1153 547 
L 3941 547 
L 3941 0 
L 547 0 
L 547 4591 
z
M 2244 4591 
L 2244 4591 
z
" transform="scale(0.015625)"/>
       <path id="Helvetica-6e" d="M 413 3347 
L 947 3347 
L 947 2872 
Q 1184 3166 1450 3294 
Q 1716 3422 2041 3422 
Q 2753 3422 3003 2925 
Q 3141 2653 3141 2147 
L 3141 0 
L 2569 0 
L 2569 2109 
Q 2569 2416 2478 2603 
Q 2328 2916 1934 2916 
Q 1734 2916 1606 2875 
Q 1375 2806 1200 2600 
Q 1059 2434 1017 2257 
Q 975 2081 975 1753 
L 975 0 
L 413 0 
L 413 3347 
z
M 1734 3428 
L 1734 3428 
z
" transform="scale(0.015625)"/>
       <path id="Helvetica-2d" d="M 266 2072 
L 1834 2072 
L 1834 1494 
L 266 1494 
L 266 2072 
z
" transform="scale(0.015625)"/>
       <path id="Helvetica-74" d="M 525 4281 
L 1094 4281 
L 1094 3347 
L 1628 3347 
L 1628 2888 
L 1094 2888 
L 1094 703 
Q 1094 528 1213 469 
Q 1278 434 1431 434 
Q 1472 434 1519 436 
Q 1566 438 1628 444 
L 1628 0 
Q 1531 -28 1426 -40 
Q 1322 -53 1200 -53 
Q 806 -53 665 148 
Q 525 350 525 672 
L 525 2888 
L 72 2888 
L 72 3347 
L 525 3347 
L 525 4281 
z
" transform="scale(0.015625)"/>
       <path id="Helvetica-20" transform="scale(0.015625)"/>
       <path id="Helvetica-70" d="M 1825 378 
Q 2219 378 2480 708 
Q 2741 1038 2741 1694 
Q 2741 2094 2625 2381 
Q 2406 2934 1825 2934 
Q 1241 2934 1025 2350 
Q 909 2038 909 1556 
Q 909 1169 1025 897 
Q 1244 378 1825 378 
z
M 369 3331 
L 916 3331 
L 916 2888 
Q 1084 3116 1284 3241 
Q 1569 3428 1953 3428 
Q 2522 3428 2919 2992 
Q 3316 2556 3316 1747 
Q 3316 653 2744 184 
Q 2381 -113 1900 -113 
Q 1522 -113 1266 53 
Q 1116 147 931 375 
L 931 -1334 
L 369 -1334 
L 369 3331 
z
" transform="scale(0.015625)"/>
       <path id="Helvetica-72" d="M 428 3347 
L 963 3347 
L 963 2769 
Q 1028 2938 1284 3180 
Q 1541 3422 1875 3422 
Q 1891 3422 1928 3419 
Q 1966 3416 2056 3406 
L 2056 2813 
Q 2006 2822 1964 2825 
Q 1922 2828 1872 2828 
Q 1447 2828 1219 2554 
Q 991 2281 991 1925 
L 991 0 
L 428 0 
L 428 3347 
z
" transform="scale(0.015625)"/>
       <path id="Helvetica-77" d="M 672 3347 
L 1316 709 
L 1969 3347 
L 2600 3347 
L 3256 725 
L 3941 3347 
L 4503 3347 
L 3531 0 
L 2947 0 
L 2266 2591 
L 1606 0 
L 1022 0 
L 56 3347 
L 672 3347 
z
" transform="scale(0.015625)"/>
      </defs>
      <use xlink:href="#Helvetica-45"/>
      <use xlink:href="#Helvetica-6e" transform="translate(66.699219 0)"/>
      <use xlink:href="#Helvetica-64" transform="translate(122.314453 0)"/>
      <use xlink:href="#Helvetica-2d" transform="translate(177.929688 0)"/>
      <use xlink:href="#Helvetica-74" transform="translate(211.230469 0)"/>
      <use xlink:href="#Helvetica-6f" transform="translate(239.013672 0)"/>
      <use xlink:href="#Helvetica-2d" transform="translate(294.628906 0)"/>
      <use xlink:href="#Helvetica-65" transform="translate(327.929688 0)"/>
      <use xlink:href="#Helvetica-6e" transform="translate(383.544922 0)"/>
      <use xlink:href="#Helvetica-64" transform="translate(439.160156 0)"/>
      <use xlink:href="#Helvetica-20" transform="translate(494.775391 0)"/>
      <use xlink:href="#Helvetica-73" transform="translate(522.558594 0)"/>
      <use xlink:href="#Helvetica-65" transform="translate(572.558594 0)"/>
      <use xlink:href="#Helvetica-63" transform="translate(628.173828 0)"/>
      <use xlink:href="#Helvetica-6f" transform="translate(678.173828 0)"/>
      <use xlink:href="#Helvetica-6e" transform="translate(733.789062 0)"/>
      <use xlink:href="#Helvetica-64" transform="translate(789.404297 0)"/>
      <use xlink:href="#Helvetica-73" transform="translate(845.019531 0)"/>
      <use xlink:href="#Helvetica-20" transform="translate(895.019531 0)"/>
      <use xlink:href="#Helvetica-70" transform="translate(922.802734 0)"/>
      <use xlink:href="#Helvetica-65" transform="translate(978.417969 0)"/>
      <use xlink:href="#Helvetica-72" transform="translate(1034.033203 0)"/>
      <use xlink:href="#Helvetica-20" transform="translate(1067.333984 0)"/>
      <use xlink:href="#Helvetica-72" transform="translate(1095.117188 0)"/>
      <use xlink:href="#Helvetica-6f" transform="translate(1128.417969 0)"/>
      <use xlink:href="#Helvetica-77" transform="translate(1184.033203 0)"/>
     </g>
    </g>
   </g>
   <g id="patch_3">
    <path d="M 66.16325 246.552985 
L 139.81925 246.552985 
L 139.81925 210.110971 
L 66.16325 210.110971 
L 66.16325 246.552985 
z
" clip-path="url(#p84c5ea51ae)" style="fill: #0072b2; opacity: 0.8; stroke: #000000; stroke-linejoin: miter"/>
   </g>
   <g id="line2d_16">
    <path d="M 102.99125 246.552985 
L 102.99125 288.228368 
" clip-path="url(#p84c5ea51ae)" style="fill: none; stroke: #000000; stroke-linecap: square"/>
   </g>
   <g id="line2d_17">
    <path d="M 102.99125 210.110971 
L 102.99125 164.192412 
" clip-path="url(#p84c5ea51ae)" style="fill: none; stroke: #000000; stroke-linecap: square"/>
   </g>
   <g id="line2d_18">
    <path d="M 84.57725 288.228368 
L 121.40525 288.228368 
" clip-path="url(#p84c5ea51ae)" style="fill: none; stroke: #000000; stroke-linecap: square"/>
   </g>
   <g id="line2d_19">
    <path d="M 84.57725 164.192412 
L 121.40525 164.192412 
" clip-path="url(#p84c5ea51ae)" style="fill: none; stroke: #000000; stroke-linecap: square"/>
   </g>
   <g id="line2d_20">
    <defs>
     <path id="m66d956b683" d="M 0 3 
C 0.795609 3 1.55874 2.683901 2.12132 2.12132 
C 2.683901 1.55874 3 0.795609 3 0 
C 3 -0.795609 2.683901 -1.55874 2.12132 -2.12132 
C 1.55874 -2.683901 0.795609 -3 0 -3 
C -0.795609 -3 -1.55874 -2.683901 -2.12132 -2.12132 
C -2.683901 -1.55874 -3 -0.795609 -3 0 
C -3 0.795609 -2.683901 1.55874 -2.12132 2.12132 
C -1.55874 2.683901 -0.795609 3 0 3 
z
" style="stroke: #000000"/>
    </defs>
    <g clip-path="url(#p84c5ea51ae)">
     <use xlink:href="#m66d956b683" x="102.99125" y="119.568679" style="fill-opacity: 0; stroke: #000000"/>
     <use xlink:href="#m66d956b683" x="102.99125" y="142.672382" style="fill-opacity: 0; stroke: #000000"/>
     <use xlink:href="#m66d956b683" x="102.99125" y="124.117946" style="fill-opacity: 0; stroke: #000000"/>
     <use xlink:href="#m66d956b683" x="102.99125" y="136.108174" style="fill-opacity: 0; stroke: #000000"/>
     <use xlink:href="#m66d956b683" x="102.99125" y="143.527655" style="fill-opacity: 0; stroke: #000000"/>
     <use xlink:href="#m66d956b683" x="102.99125" y="154.814973" style="fill-opacity: 0; stroke: #000000"/>
     <use xlink:href="#m66d956b683" x="102.99125" y="135.981361" style="fill-opacity: 0; stroke: #000000"/>
     <use xlink:href="#m66d956b683" x="102.99125" y="122.042527" style="fill-opacity: 0; stroke: #000000"/>
     <use xlink:href="#m66d956b683" x="102.99125" y="154.886383" style="fill-opacity: 0; stroke: #000000"/>
     <use xlink:href="#m66d956b683" x="102.99125" y="149.527719" style="fill-opacity: 0; stroke: #000000"/>
     <use xlink:href="#m66d956b683" x="102.99125" y="139.479506" style="fill-opacity: 0; stroke: #000000"/>
     <use xlink:href="#m66d956b683" x="102.99125" y="49.032906" style="fill-opacity: 0; stroke: #000000"/>
    </g>
   </g>
   <g id="patch_4">
    <path d="M 200.08325 272.442155 
L 273.73925 272.442155 
L 273.73925 243.738839 
L 200.08325 243.738839 
L 200.08325 272.442155 
z
" clip-path="url(#p84c5ea51ae)" style="fill: #e69f00; opacity: 0.8; stroke: #000000; stroke-linejoin: miter"/>
   </g>
   <g id="line2d_21">
    <path d="M 236.91125 272.442155 
L 236.91125 311.112906 
" clip-path="url(#p84c5ea51ae)" style="fill: none; stroke: #000000; stroke-linecap: square"/>
   </g>
   <g id="line2d_22">
    <path d="M 236.91125 243.738839 
L 236.91125 206.313373 
" clip-path="url(#p84c5ea51ae)" style="fill: none; stroke: #000000; stroke-linecap: square"/>
   </g>
   <g id="line2d_23">
    <path d="M 218.49725 311.112906 
L 255.32525 311.112906 
" clip-path="url(#p84c5ea51ae)" style="fill: none; stroke: #000000; stroke-linecap: square"/>
   </g>
   <g id="line2d_24">
    <path d="M 218.49725 206.313373 
L 255.32525 206.313373 
" clip-path="url(#p84c5ea51ae)" style="fill: none; stroke: #000000; stroke-linecap: square"/>
   </g>
   <g id="line2d_25">
    <g clip-path="url(#p84c5ea51ae)">
     <use xlink:href="#m66d956b683" x="236.91125" y="166.825325" style="fill-opacity: 0; stroke: #000000"/>
     <use xlink:href="#m66d956b683" x="236.91125" y="185.265509" style="fill-opacity: 0; stroke: #000000"/>
     <use xlink:href="#m66d956b683" x="236.91125" y="173.830906" style="fill-opacity: 0; stroke: #000000"/>
     <use xlink:href="#m66d956b683" x="236.91125" y="182.766118" style="fill-opacity: 0; stroke: #000000"/>
     <use xlink:href="#m66d956b683" x="236.91125" y="191.927367" style="fill-opacity: 0; stroke: #000000"/>
     <use xlink:href="#m66d956b683" x="236.91125" y="69.876612" style="fill-opacity: 0; stroke: #000000"/>
     <use xlink:href="#m66d956b683" x="236.91125" y="65.955088" style="fill-opacity: 0; stroke: #000000"/>
     <use xlink:href="#m66d956b683" x="236.91125" y="195.522059" style="fill-opacity: 0; stroke: #000000"/>
     <use xlink:href="#m66d956b683" x="236.91125" y="159.511387" style="fill-opacity: 0; stroke: #000000"/>
     <use xlink:href="#m66d956b683" x="236.91125" y="174.726323" style="fill-opacity: 0; stroke: #000000"/>
     <use xlink:href="#m66d956b683" x="236.91125" y="185.047098" style="fill-opacity: 0; stroke: #000000"/>
     <use xlink:href="#m66d956b683" x="236.91125" y="192.225438" style="fill-opacity: 0; stroke: #000000"/>
    </g>
   </g>
   <g id="patch_5">
    <path d="M 334.00325 265.859688 
L 407.65925 265.859688 
L 407.65925 222.860173 
L 334.00325 222.860173 
L 334.00325 265.859688 
z
" clip-path="url(#p84c5ea51ae)" style="fill: #009e73; opacity: 0.8; stroke: #000000; stroke-linejoin: miter"/>
   </g>
   <g id="line2d_26">
    <path d="M 370.83125 265.859688 
L 370.83125 295.257933 
" clip-path="url(#p84c5ea51ae)" style="fill: none; stroke: #000000; stroke-linecap: square"/>
   </g>
   <g id="line2d_27">
    <path d="M 370.83125 222.860173 
L 370.83125 160.500849 
" clip-path="url(#p84c5ea51ae)" style="fill: none; stroke: #000000; stroke-linecap: square"/>
   </g>
   <g id="line2d_28">
    <path d="M 352.41725 295.257933 
L 389.24525 295.257933 
" clip-path="url(#p84c5ea51ae)" style="fill: none; stroke: #000000; stroke-linecap: square"/>
   </g>
   <g id="line2d_29">
    <path d="M 352.41725 160.500849 
L 389.24525 160.500849 
" clip-path="url(#p84c5ea51ae)" style="fill: none; stroke: #000000; stroke-linecap: square"/>
   </g>
   <g id="line2d_30">
    <g clip-path="url(#p84c5ea51ae)">
     <use xlink:href="#m66d956b683" x="370.83125" y="110.417583" style="fill-opacity: 0; stroke: #000000"/>
     <use xlink:href="#m66d956b683" x="370.83125" y="157.142083" style="fill-opacity: 0; stroke: #000000"/>
    </g>
   </g>
   <g id="line2d_31">
    <path d="M 66.16325 227.34318 
L 139.81925 227.34318 
" clip-path="url(#p84c5ea51ae)" style="fill: none; stroke: #000000; stroke-width: 1.4"/>
   </g>
   <g id="line2d_32">
    <path d="M 200.08325 260.122027 
L 273.73925 260.122027 
" clip-path="url(#p84c5ea51ae)" style="fill: none; stroke: #000000; stroke-width: 1.4"/>
   </g>
   <g id="line2d_33">
    <path d="M 334.00325 251.289063 
L 407.65925 251.289063 
" clip-path="url(#p84c5ea51ae)" style="fill: none; stroke: #000000; stroke-width: 1.4"/>
   </g>
   <g id="patch_6">
    <path d="M 36.03125 324.216906 
L 36.03125 35.928906 
" style="fill: none; stroke: #000000; stroke-width: 0.8; stroke-linejoin: miter; stroke-linecap: square"/>
   </g>
   <g id="patch_7">
    <path d="M 36.03125 324.216906 
L 437.79125 324.216906 
" style="fill: none; stroke: #000000; stroke-width: 0.8; stroke-linejoin: miter; stroke-linecap: square"/>
   </g>
   <g id="text_11">
    <!-- End-to-end latency by retrieval mode (n=218/mode) -->
    <g transform="translate(93.962031 16.313281) scale(0.125 -0.125)">
     <defs>
      <path id="Helvetica-79" d="M 2503 3347 
L 3125 3347 
Q 3006 3025 2597 1878 
Q 2291 1016 2084 472 
Q 1597 -809 1397 -1090 
Q 1197 -1372 709 -1372 
Q 591 -1372 527 -1362 
Q 463 -1353 369 -1328 
L 369 -816 
Q 516 -856 581 -865 
Q 647 -875 697 -875 
Q 853 -875 926 -823 
Q 1000 -772 1050 -697 
Q 1066 -672 1162 -440 
Q 1259 -209 1303 -97 
L 66 3347 
L 703 3347 
L 1600 622 
L 2503 3347 
z
M 1597 3428 
L 1597 3428 
z
" transform="scale(0.015625)"/>
      <path id="Helvetica-76" d="M 688 3347 
L 1581 622 
L 2516 3347 
L 3131 3347 
L 1869 0 
L 1269 0 
L 34 3347 
L 688 3347 
z
" transform="scale(0.015625)"/>
      <path id="Helvetica-6d" d="M 413 3347 
L 969 3347 
L 969 2872 
Q 1169 3119 1331 3231 
Q 1609 3422 1963 3422 
Q 2363 3422 2606 3225 
Q 2744 3113 2856 2894 
Q 3044 3163 3297 3292 
Q 3550 3422 3866 3422 
Q 4541 3422 4784 2934 
Q 4916 2672 4916 2228 
L 4916 0 
L 4331 0 
L 4331 2325 
Q 4331 2659 4164 2784 
Q 3997 2909 3756 2909 
Q 3425 2909 3186 2687 
Q 2947 2466 2947 1947 
L 2947 0 
L 2375 0 
L 2375 2184 
Q 2375 2525 2294 2681 
Q 2166 2916 1816 2916 
Q 1497 2916 1236 2669 
Q 975 2422 975 1775 
L 975 0 
L 413 0 
L 413 3347 
z
" transform="scale(0.015625)"/>
      <path id="Helvetica-28" d="M 1894 4666 
Q 1403 3713 1256 3263 
Q 1034 2578 1034 1681 
Q 1034 775 1288 25 
Q 1444 -438 1903 -1306 
L 1525 -1306 
Q 1069 -594 959 -397 
Q 850 -200 722 138 
Q 547 600 478 1125 
Q 444 1397 444 1644 
Q 444 2569 734 3291 
Q 919 3750 1503 4666 
L 1894 4666 
z
" transform="scale(0.015625)"/>
      <path id="Helvetica-3d" d="M 3547 2569 
L 3547 2044 
L 288 2044 
L 288 2569 
L 3547 2569 
z
M 3547 1228 
L 3547 694 
L 288 694 
L 288 1228 
L 3547 1228 
z
" transform="scale(0.015625)"/>
      <path id="Helvetica-2f" d="M 1456 4591 
L 1931 4591 
L 475 0 
L 0 0 
L 1456 4591 
z
" transform="scale(0.015625)"/>
      <path id="Helvetica-29" d="M 222 -1306 
Q 719 -338 863 106 
Q 1081 778 1081 1681 
Q 1081 2584 828 3334 
Q 672 3797 213 4666 
L 591 4666 
Q 1072 3897 1173 3717 
Q 1275 3538 1394 3222 
Q 1544 2831 1608 2450 
Q 1672 2069 1672 1716 
Q 1672 791 1378 66 
Q 1194 -400 613 -1306 
L 222 -1306 
z
" transform="scale(0.015625)"/>
     </defs>
     <use xlink:href="#Helvetica-45"/>
     <use xlink:href="#Helvetica-6e" transform="translate(66.699219 0)"/>
     <use xlink:href="#Helvetica-64" transform="translate(122.314453 0)"/>
     <use xlink:href="#Helvetica-2d" transform="translate(177.929688 0)"/>
     <use xlink:href="#Helvetica-74" transform="translate(211.230469 0)"/>
     <use xlink:href="#Helvetica-6f" transform="translate(239.013672 0)"/>
     <use xlink:href="#Helvetica-2d" transform="translate(294.628906 0)"/>
     <use xlink:href="#Helvetica-65" transform="translate(327.929688 0)"/>
     <use xlink:href="#Helvetica-6e" transform="translate(383.544922 0)"/>
     <use xlink:href="#Helvetica-64" transform="translate(439.160156 0)"/>
     <use xlink:href="#Helvetica-20" transform="translate(494.775391 0)"/>
     <use xlink:href="#Helvetica-6c" transform="translate(522.558594 0)"/>
     <use xlink:href="#Helvetica-61" transform="translate(544.775391 0)"/>
     <use xlink:href="#Helvetica-74" transform="translate(600.390625 0)"/>
     <use xlink:href="#Helvetica-65" transform="translate(628.173828 0)"/>
     <use xlink:href="#Helvetica-6e" transform="translate(683.789062 0)"/>
     <use xlink:href="#Helvetica-63" transform="translate(739.404297 0)"/>
     <use xlink:href="#Helvetica-79" transform="translate(789.404297 0)"/>
     <use xlink:href="#Helvetica-20" transform="translate(839.404297 0)"/>
     <use xlink:href="#Helvetica-62" transform="translate(867.1875 0)"/>
     <use xlink:href="#Helvetica-79" transform="translate(922.802734 0)"/>
     <use xlink:href="#Helvetica-20" transform="translate(972.802734 0)"/>
     <use xlink:href="#Helvetica-72" transform="translate(1000.585938 0)"/>
     <use xlink:href="#Helvetica-65" transform="translate(1033.886719 0)"/>
     <use xlink:href="#Helvetica-74" transform="translate(1089.501953 0)"/>
     <use xlink:href="#Helvetica-72" transform="translate(1117.285156 0)"/>
     <use xlink:href="#Helvetica-69" transform="translate(1150.585938 0)"/>
     <use xlink:href="#Helvetica-65" transform="translate(1172.802734 0)"/>
     <use xlink:href="#Helvetica-76" transform="translate(1228.417969 0)"/>
     <use xlink:href="#Helvetica-61" transform="translate(1278.417969 0)"/>
     <use xlink:href="#Helvetica-6c" transform="translate(1334.033203 0)"/>
     <use xlink:href="#Helvetica-20" transform="translate(1356.25 0)"/>
     <use xlink:href="#Helvetica-6d" transform="translate(1384.033203 0)"/>
     <use xlink:href="#Helvetica-6f" transform="translate(1467.333984 0)"/>
     <use xlink:href="#Helvetica-64" transform="translate(1522.949219 0)"/>
     <use xlink:href="#Helvetica-65" transform="translate(1578.564453 0)"/>
     <use xlink:href="#Helvetica-20" transform="translate(1634.179688 0)"/>
     <use xlink:href="#Helvetica-28" transform="translate(1661.962891 0)"/>
     <use xlink:href="#Helvetica-6e" transform="translate(1695.263672 0)"/>
     <use xlink:href="#Helvetica-3d" transform="translate(1750.878906 0)"/>
     <use xlink:href="#Helvetica-32" transform="translate(1809.277344 0)"/>
     <use xlink:href="#Helvetica-31" transform="translate(1864.892578 0)"/>
     <use xlink:href="#Helvetica-38" transform="translate(1920.507812 0)"/>
     <use xlink:href="#Helvetica-2f" transform="translate(1976.123047 0)"/>
     <use xlink:href="#Helvetica-6d" transform="translate(2003.90625 0)"/>
     <use xlink:href="#Helvetica-6f" transform="translate(2087.207031 0)"/>
     <use xlink:href="#Helvetica-64" transform="translate(2142.822266 0)"/>
     <use xlink:href="#Helvetica-65" transform="translate(2198.4375 0)"/>
     <use xlink:href="#Helvetica-29" transform="translate(2254.052734 0)"/>
    </g>
    <!-- (stage-level breakdown omitted - - see caption) -->
    <g transform="translate(108.386836 29.928906) scale(0.125 -0.125)">
     <defs>
      <path id="Helvetica-67" d="M 1594 3406 
Q 1988 3406 2281 3213 
Q 2441 3103 2606 2894 
L 2606 3316 
L 3125 3316 
L 3125 272 
Q 3125 -366 2938 -734 
Q 2588 -1416 1616 -1416 
Q 1075 -1416 706 -1173 
Q 338 -931 294 -416 
L 866 -416 
Q 906 -641 1028 -763 
Q 1219 -950 1628 -950 
Q 2275 -950 2475 -494 
Q 2594 -225 2584 466 
Q 2416 209 2178 84 
Q 1941 -41 1550 -41 
Q 1006 -41 598 345 
Q 191 731 191 1622 
Q 191 2463 602 2934 
Q 1013 3406 1594 3406 
z
M 2606 1688 
Q 2606 2309 2350 2609 
Q 2094 2909 1697 2909 
Q 1103 2909 884 2353 
Q 769 2056 769 1575 
Q 769 1009 998 714 
Q 1228 419 1616 419 
Q 2222 419 2469 966 
Q 2606 1275 2606 1688 
z
M 1659 3428 
L 1659 3428 
z
" transform="scale(0.015625)"/>
      <path id="Helvetica-6b" d="M 400 4591 
L 941 4591 
L 941 1925 
L 2384 3347 
L 3103 3347 
L 1822 2094 
L 3175 0 
L 2456 0 
L 1413 1688 
L 941 1256 
L 941 0 
L 400 0 
L 400 4591 
z
" transform="scale(0.015625)"/>
     </defs>
     <use xlink:href="#Helvetica-28"/>
     <use xlink:href="#Helvetica-73" transform="translate(33.300781 0)"/>
     <use xlink:href="#Helvetica-74" transform="translate(83.300781 0)"/>
     <use xlink:href="#Helvetica-61" transform="translate(111.083984 0)"/>
     <use xlink:href="#Helvetica-67" transform="translate(166.699219 0)"/>
     <use xlink:href="#Helvetica-65" transform="translate(222.314453 0)"/>
     <use xlink:href="#Helvetica-2d" transform="translate(277.929688 0)"/>
     <use xlink:href="#Helvetica-6c" transform="translate(311.230469 0)"/>
     <use xlink:href="#Helvetica-65" transform="translate(333.447266 0)"/>
     <use xlink:href="#Helvetica-76" transform="translate(389.0625 0)"/>
     <use xlink:href="#Helvetica-65" transform="translate(439.0625 0)"/>
     <use xlink:href="#Helvetica-6c" transform="translate(494.677734 0)"/>
     <use xlink:href="#Helvetica-20" transform="translate(516.894531 0)"/>
     <use xlink:href="#Helvetica-62" transform="translate(544.677734 0)"/>
     <use xlink:href="#Helvetica-72" transform="translate(600.292969 0)"/>
     <use xlink:href="#Helvetica-65" transform="translate(633.59375 0)"/>
     <use xlink:href="#Helvetica-61" transform="translate(689.208984 0)"/>
     <use xlink:href="#Helvetica-6b" transform="translate(744.824219 0)"/>
     <use xlink:href="#Helvetica-64" transform="translate(794.824219 0)"/>
     <use xlink:href="#Helvetica-6f" transform="translate(850.439453 0)"/>
     <use xlink:href="#Helvetica-77" transform="translate(906.054688 0)"/>
     <use xlink:href="#Helvetica-6e" transform="translate(978.271484 0)"/>
     <use xlink:href="#Helvetica-20" transform="translate(1033.886719 0)"/>
     <use xlink:href="#Helvetica-6f" transform="translate(1061.669922 0)"/>
     <use xlink:href="#Helvetica-6d" transform="translate(1117.285156 0)"/>
     <use xlink:href="#Helvetica-69" transform="translate(1200.585938 0)"/>
     <use xlink:href="#Helvetica-74" transform="translate(1222.802734 0)"/>
     <use xlink:href="#Helvetica-74" transform="translate(1250.585938 0)"/>
     <use xlink:href="#Helvetica-65" transform="translate(1278.369141 0)"/>
     <use xlink:href="#Helvetica-64" transform="translate(1333.984375 0)"/>
     <use xlink:href="#Helvetica-20" transform="translate(1389.599609 0)"/>
     <use xlink:href="#Helvetica-2d" transform="translate(1417.382812 0)"/>
     <use xlink:href="#Helvetica-2d" transform="translate(1450.683594 0)"/>
     <use xlink:href="#Helvetica-20" transform="translate(1483.984375 0)"/>
     <use xlink:href="#Helvetica-73" transform="translate(1511.767578 0)"/>
     <use xlink:href="#Helvetica-65" transform="translate(1561.767578 0)"/>
     <use xlink:href="#Helvetica-65" transform="translate(1617.382812 0)"/>
     <use xlink:href="#Helvetica-20" transform="translate(1672.998047 0)"/>
     <use xlink:href="#Helvetica-63" transform="translate(1700.78125 0)"/>
     <use xlink:href="#Helvetica-61" transform="translate(1750.78125 0)"/>
     <use xlink:href="#Helvetica-70" transform="translate(1806.396484 0)"/>
     <use xlink:href="#Helvetica-74" transform="translate(1862.011719 0)"/>
     <use xlink:href="#Helvetica-69" transform="translate(1889.794922 0)"/>
     <use xlink:href="#Helvetica-6f" transform="translate(1912.011719 0)"/>
     <use xlink:href="#Helvetica-6e" transform="translate(1967.626953 0)"/>
     <use xlink:href="#Helvetica-29" transform="translate(2023.242188 0)"/>
    </g>
   </g>
  </g>
 </g>
 <defs>
  <clipPath id="p84c5ea51ae">
   <rect x="36.03125" y="35.928906" width="401.76" height="288.288"/>
  </clipPath>
 </defs>
</svg>
